<svg width="23" height="38" viewBox="0 0 23 38" fill="none" xmlns="http://www.w3.org/2000/svg">
<g clip-path="url(#clip0)">
<path fill-rule="evenodd" clip-rule="evenodd" d="M22.2344 0.554785C21.8214 0.198349 21.2735 0 20.7039 0C20.1342 0 19.5864 0.198349 19.1733 0.554785L1.26883 16.2567C0.868051 16.6028 0.548905 17.0187 0.330836 17.4804C0.112766 17.9421 0.000366211 18.4401 0.000366211 18.9425C0.000366211 19.4449 0.112766 19.942 0.330836 20.4037C0.548905 20.8654 0.868051 21.2812 1.26883 21.6273L19.3029 37.4452C20.1393 38.1767 21.4942 38.1858 22.3431 37.4638C22.5487 37.2918 22.7131 37.0836 22.8262 36.8515C22.9393 36.6193 22.9987 36.3687 23.0006 36.1148C23.0026 35.861 22.9471 35.609 22.8376 35.3754C22.7281 35.1419 22.5669 34.9313 22.3641 34.7566L5.8605 20.284C5.65995 20.1109 5.50025 19.9026 5.39112 19.6717C5.28199 19.4407 5.22566 19.1929 5.22566 18.9416C5.22566 18.6902 5.28199 18.4414 5.39112 18.2105C5.50025 17.9796 5.65995 17.7713 5.8605 17.5982L22.2323 3.23965C22.4328 3.06675 22.5924 2.85812 22.7015 2.62734C22.8107 2.39657 22.8669 2.14839 22.8669 1.89722C22.8669 1.64604 22.8107 1.39787 22.7015 1.16709C22.5924 0.936313 22.4328 0.727685 22.2323 0.554785" fill="white"/>
</g>
<defs>
<clipPath id="clip0">
<rect width="23" height="38" fill="white"/>
</clipPath>
</defs>
</svg>
