<svg width="23" height="38" viewBox="0 0 23 38" fill="none" xmlns="http://www.w3.org/2000/svg">
<g clip-path="url(#clip0)">
<path fill-rule="evenodd" clip-rule="evenodd" d="M0.765604 0.554785C1.17865 0.198349 1.72652 0 2.29614 0C2.86576 0 3.41363 0.198349 3.82667 0.554785L21.7312 16.2567C22.1319 16.6028 22.4511 17.0187 22.6692 17.4804C22.8872 17.9421 22.9996 18.4401 22.9996 18.9425C22.9996 19.4449 22.8872 19.942 22.6692 20.4037C22.4511 20.8654 22.1319 21.2812 21.7312 21.6273L3.69707 37.4452C2.86071 38.1767 1.50578 38.1858 0.656872 37.4638C0.451348 37.2918 0.28694 37.0836 0.173835 36.8515C0.0607296 36.6193 0.00134025 36.3687 -0.000620495 36.1148C-0.00258124 35.861 0.0529046 35.609 0.162413 35.3754C0.271921 35.1419 0.433095 34.9313 0.635943 34.7566L17.1395 20.284C17.3401 20.1109 17.4997 19.9026 17.6089 19.6717C17.718 19.4407 17.7743 19.1929 17.7743 18.9416C17.7743 18.6902 17.718 18.4414 17.6089 18.2105C17.4997 17.9796 17.3401 17.7713 17.1395 17.5982L0.767709 3.23965C0.567212 3.06675 0.407563 2.85812 0.298455 2.62734C0.189346 2.39657 0.13306 2.14839 0.13306 1.89722C0.13306 1.64604 0.189346 1.39787 0.298455 1.16709C0.407563 0.936313 0.567212 0.727685 0.767709 0.554785" fill="white"/>
</g>
<defs>
<clipPath id="clip0">
<rect width="23" height="38" fill="white" transform="matrix(-1 0 0 1 23 0)"/>
</clipPath>
</defs>
</svg>
