<svg width="199" height="77" viewBox="0 0 199 77" fill="none" xmlns="http://www.w3.org/2000/svg">
<path d="M21.992 27.8228C21.992 25.4615 20.8865 24.2808 18.6754 24.2808C18.3692 24.2808 17.995 24.315 17.5528 24.3835C17.1106 24.4177 16.8044 24.2979 16.6344 24.0242C16.3622 23.6477 16.8044 23.391 17.961 23.2542C18.3692 23.1857 18.7774 23.1515 19.1856 23.1515C21.1586 23.1515 22.5023 24.007 23.2167 25.7182C23.5228 26.4368 23.6759 27.3608 23.6759 28.4901C23.6759 29.5853 23.1997 30.9713 22.2472 32.6482C20.5803 35.6939 17.961 37.9697 14.3892 39.4755C13.1986 39.9888 11.957 40.2455 10.6644 40.2455C9.40572 40.2455 8.09606 39.9204 6.73538 39.2702C4.21812 38.0724 2.46623 36.0704 1.47974 33.2642C1.10555 32.169 0.918457 30.8002 0.918457 29.1575C0.918457 27.4806 1.37769 25.3759 2.29615 22.8435C4.40521 17.8813 7.87495 13.6548 12.7054 10.1642C17.876 6.39971 22.7064 4.51749 27.1967 4.51749C31.0066 4.51749 33.5579 6.05749 34.8505 9.13749C35.4288 10.4722 35.7179 12.0806 35.7179 13.9628C35.7179 14.5788 35.6839 15.2119 35.6159 15.8622C35.2757 18.8395 34.3913 22.2446 32.9626 26.0775C32.7244 26.7277 32.6054 27.1726 32.6054 27.4122C32.6054 27.6175 32.6564 27.7202 32.7585 27.7202C32.9285 27.7544 33.2177 27.395 33.6259 26.6422C36.1432 22.0222 38.9156 17.8813 41.9431 14.2195C42.9296 13.0217 44.1202 12.0464 45.5149 11.2935C47.0456 10.4722 48.4063 10.0615 49.5969 10.0615C50.8215 10.0615 51.774 10.5064 52.4544 11.3962C53.1687 12.2859 53.5259 13.4666 53.5259 14.9382C53.5259 18.3946 52.1822 24.161 49.4949 32.2375C48.9506 33.8459 48.6104 34.8726 48.4744 35.3175C51.2297 30.9713 54.6825 26.1973 58.8326 20.9955C63.0167 15.7595 66.7245 12.6624 69.9562 11.7042C70.5344 11.533 71.0447 11.4475 71.4869 11.4475C72.7796 11.4475 73.613 12.0977 73.9872 13.3982C74.1232 13.843 74.1913 14.3564 74.1913 14.9382C74.1913 16.6835 73.5109 18.925 72.1503 21.6628C69.3608 27.2753 67.4559 31.7413 66.4354 35.0608C65.0407 39.4413 64.3433 42.4357 64.3433 44.0442C64.3433 45.6526 64.4964 46.9873 64.8026 48.0482C65.4149 50.1699 67.0307 51.2308 69.65 51.2308C69.7861 51.2308 70.0582 51.2137 70.4664 51.1795C70.9086 51.1795 71.1467 51.265 71.1808 51.4361C71.2488 51.6073 71.1297 51.7613 70.8236 51.8981C70.5514 52.035 70.2623 52.1035 69.9562 52.1035C69.684 52.1035 69.4629 52.0864 69.2928 52.0521C63.9181 51.5046 61.2308 48.7326 61.2308 43.7361C61.2308 41.9224 61.5879 39.869 62.3023 37.5761C63.0507 35.249 63.68 33.4695 64.1903 32.2375C65.0067 30.2526 66.7245 26.3684 69.3438 20.5848C70.2623 18.4288 70.7215 16.7862 70.7215 15.6568C70.7215 14.5275 70.2453 13.9628 69.2928 13.9628C67.9662 13.9628 65.9081 15.3317 63.1187 18.0695C61.69 19.5068 60.1422 21.2693 58.4754 23.3568C56.8085 25.4102 54.3423 29.0377 51.0767 34.2395C47.811 39.407 45.736 43.0517 44.8515 45.1735C44.0691 47.0215 43.0316 47.9455 41.739 47.9455C40.8205 47.9455 40.2762 47.6204 40.1061 46.9702C40.0041 46.6964 40.0041 46.4739 40.1061 46.3028C40.2082 46.1659 40.5314 45.6013 41.0756 44.6088C41.6199 43.6164 42.1812 42.5726 42.7595 41.4775C43.3378 40.3824 44.0181 38.8937 44.8005 37.0115C45.6169 35.1293 46.3653 33.2128 47.0456 31.2622C48.6785 26.4368 49.784 21.4746 50.3623 16.3755C50.4303 15.7937 50.4644 15.075 50.4644 14.2195C50.4644 13.3297 50.2262 12.6282 49.75 12.1148C49.3078 11.6015 48.8315 11.3448 48.3213 11.3448C46.6544 11.3448 44.8175 12.611 42.8105 15.1435C40.0891 18.5315 37.725 21.8682 35.7179 25.1535C33.7109 28.4046 32.1632 31.1424 31.0746 33.3668C30.0201 35.5913 28.7785 38.2777 27.3497 41.4261C25.955 44.5404 25.2067 46.2002 25.1046 46.4055C25.0366 46.6108 24.9175 46.8675 24.7474 47.1755C24.6114 47.4835 24.4923 47.7744 24.3903 48.0482C23.948 49.0406 22.9956 49.5368 21.5328 49.5368C20.6824 49.5368 20.2232 49.263 20.1551 48.7155C20.1551 48.6128 20.1721 48.493 20.2062 48.3562C22.4513 44.8655 24.9345 39.5782 27.6559 32.4942C31.1256 23.5279 32.8605 16.9915 32.8605 12.8848C32.8605 7.99104 30.8535 5.54415 26.8395 5.54415C24.2542 5.54415 20.9885 6.79326 17.0426 9.29149C13.1306 11.7897 9.88196 14.9895 7.29666 18.8908C6.27615 20.4308 5.51077 21.9195 5.00051 23.3568C4.11606 25.9919 3.67384 28.0795 3.67384 29.6195C3.67384 34.0341 5.13658 36.943 8.06205 38.3462C9.08256 38.8595 10.1201 39.1162 11.1746 39.1162C14.8485 39.1162 17.859 37.1142 20.2062 33.1102C21.3967 31.091 21.992 29.3286 21.992 27.8228ZM86.2384 32.2888C85.6261 32.9048 84.7587 34.3079 83.6361 36.4982C82.5136 38.6542 81.8332 40.2797 81.5951 41.3748C81.391 42.4357 81.2889 43.3084 81.2889 43.9928C81.2889 44.643 81.5441 44.9682 82.0543 44.9682C82.7007 44.9682 83.5001 44.3693 84.4525 43.1715C85.8472 41.4262 87.2249 39.1504 88.5856 36.3442C88.7217 36.0362 88.8748 35.865 89.0448 35.8308C89.317 35.7282 89.453 35.8308 89.453 36.1388C89.453 36.3099 89.402 36.5153 89.3 36.7548C86.1704 43.1201 83.5341 46.3028 81.391 46.3028C80.4045 46.3028 79.6051 45.8237 78.9928 44.8655C78.6866 44.3521 78.5336 43.6677 78.5336 42.8122C78.5336 41.9566 78.7036 40.9128 79.0438 39.6808C76.3224 44.0955 73.9753 46.3028 72.0023 46.3028C71.458 46.3028 70.9648 46.1317 70.5225 45.7895C69.502 45.0708 68.9918 43.8388 68.9918 42.0935C68.9918 38.7397 70.4375 35.3346 73.3289 31.8781C74.9618 29.9617 76.9688 28.7126 79.35 28.1308C79.9963 27.9597 80.6086 27.8742 81.1869 27.8742C82.7517 27.8742 84.0784 28.4217 85.1669 29.5168C85.5071 29.8933 85.6091 30.2526 85.473 30.5948C85.337 30.937 85.0478 31.0739 84.6056 31.0055C84.2314 29.7735 83.415 29.1575 82.1564 29.1575C80.6936 29.1575 78.8907 30.321 76.7477 32.6482C75.5231 34.017 74.3835 35.6255 73.3289 37.4735C72.0023 39.6979 71.3389 41.4775 71.3389 42.8122C71.3389 44.1468 71.7642 44.8142 72.6146 44.8142C74.6556 44.8142 77.326 41.6657 80.6256 35.3688C81.2719 34.1026 81.8162 33.247 82.2584 32.8022C82.7007 32.323 83.2619 32.0835 83.9423 32.0835C84.0783 32.0835 84.4185 32.1348 84.9628 32.2375C85.5411 32.3402 85.9663 32.3573 86.2384 32.2888ZM95.4542 25.6155C95.4542 27.1555 94.4847 28.6099 92.5457 29.9788C93.2261 30.013 94.1275 30.0301 95.2501 30.0301C96.4067 30.0301 97.8524 29.9446 99.5873 29.7735C99.6553 29.8761 99.6893 30.1499 99.6893 30.5948C99.6893 31.0397 99.4852 31.707 99.077 32.5968C98.6688 33.4524 98.2946 34.2053 97.9544 34.8555C97.6483 35.4715 97.3421 36.0704 97.036 36.6522C96.7638 37.1997 96.4407 37.8842 96.0665 38.7055C95.7263 39.5268 95.4372 40.2797 95.199 40.9642C94.3486 43.565 94.4847 44.8655 95.6073 44.8655C97.036 44.8655 99.145 42.0079 101.934 36.2928C102.173 35.8479 102.36 35.6768 102.496 35.7795C102.666 35.8822 102.751 36.019 102.751 36.1902C102.751 36.327 102.53 36.8575 102.088 37.7815C101.645 38.6713 101.169 39.5953 100.659 40.5535C100.149 41.5117 99.3491 42.6239 98.2606 43.8901C96.9679 45.4644 95.7263 46.2515 94.5357 46.2515C93.209 46.2515 92.2906 45.4473 91.7803 43.8388C91.6783 43.5308 91.6273 43.0688 91.6273 42.4528C91.6273 41.8368 91.8143 41.0155 92.1885 39.9888C92.5967 38.9622 93.2261 37.713 94.0765 36.2415C94.9269 34.7699 95.4031 33.9144 95.5052 33.6748C95.6072 33.401 95.6583 33.1444 95.6583 32.9048C95.6583 31.8439 94.2976 31.2793 91.5762 31.2108L90.9639 32.8535C88.8208 38.5002 86.7628 42.2817 84.7898 44.1982C84.4496 44.5062 84.2796 44.4035 84.2796 43.8901C84.2796 43.7875 84.3136 43.6677 84.3816 43.5308C86.2866 40.9984 87.9364 38.0039 89.3311 34.5475C90.7258 31.091 91.6953 27.8057 92.2396 24.6915C92.4437 23.6306 92.9199 23.1002 93.6683 23.1002C94.4167 23.1002 94.9609 23.5793 95.3011 24.5375C95.4031 24.8455 95.4542 25.2048 95.4542 25.6155ZM104.627 36.2928C104.593 36.4297 104.44 36.9088 104.168 37.7301C103.896 38.5173 103.657 39.2873 103.453 40.0402C103.283 40.7588 103.198 41.4946 103.198 42.2475C103.198 42.9662 103.368 43.6506 103.708 44.3008C104.049 44.9168 104.593 45.2248 105.341 45.2248C106.566 45.2248 107.756 44.4035 108.913 42.7608C110.07 41.0839 111.294 38.9622 112.587 36.3955C112.859 35.9164 113.114 35.7282 113.352 35.8308C113.522 35.9677 113.556 36.1559 113.454 36.3955C113.352 36.6008 113.131 37.0799 112.791 37.8328C112.485 38.5515 112.247 39.0648 112.077 39.3728C111.941 39.6466 111.668 40.1599 111.26 40.9128C110.886 41.6315 110.546 42.179 110.24 42.5555C109.968 42.8977 109.576 43.3597 109.066 43.9415C108.59 44.489 108.131 44.8997 107.688 45.1735C106.498 45.9264 105.375 46.3028 104.321 46.3028C103.266 46.3028 102.45 46.0804 101.871 45.6355C101.293 45.1564 100.936 44.6601 100.8 44.1468C100.698 43.5993 100.647 43.1201 100.647 42.7095C100.647 42.2988 100.664 41.7684 100.698 41.1182C100.8 40.023 101.004 38.9622 101.31 37.9355C101.65 36.9088 101.837 36.327 101.871 36.1902C102.654 33.3497 103.759 30.2526 105.188 26.8988C106.651 23.545 107.876 21.0297 108.862 19.3528C109.883 17.6417 110.682 16.4782 111.26 15.8622C112.417 14.6302 113.556 14.0142 114.679 14.0142C115.461 14.0142 115.989 14.5788 116.261 15.7082C116.295 15.9135 116.312 16.1702 116.312 16.4782C116.312 17.6417 115.904 19.1133 115.087 20.8928C112.162 27.4293 108.675 32.5626 104.627 36.2928ZM105.035 34.6502C106.77 32.8706 108.488 30.629 110.189 27.9255C111.89 25.2219 113.131 22.929 113.914 21.0468C114.73 19.1304 115.138 17.8299 115.138 17.1455C115.138 16.461 115.019 16.1188 114.781 16.1188C114.441 16.1188 113.794 16.8033 112.842 18.1722C111.89 19.5068 110.597 21.9366 108.964 25.4615C107.365 28.9522 106.056 32.015 105.035 34.6502ZM114.879 38.2948C114.402 39.4584 114.164 40.7588 114.164 42.1962C114.164 43.1544 114.368 43.9244 114.777 44.5062C115.219 45.0537 115.831 45.3275 116.613 45.3275C119.709 45.3275 122.515 42.4015 125.033 36.5495C125.271 36.0019 125.56 35.7624 125.9 35.8308C126.036 35.865 126.104 35.9506 126.104 36.0875C126.104 36.2244 125.713 37.1313 124.931 38.8082C124.182 40.4508 123.417 41.7855 122.635 42.8122C120.9 45.2077 118.757 46.4055 116.205 46.4055C114.845 46.4055 113.688 45.9606 112.736 45.0708C111.783 44.181 111.307 42.9661 111.307 41.4261C111.307 39.8861 111.664 38.2606 112.378 36.5495C113.127 34.8042 114.13 33.1957 115.389 31.7242C116.648 30.2184 118.093 29.1233 119.726 28.4388C120.508 28.0966 121.257 27.9255 121.971 27.9255C122.686 27.9255 123.349 28.1308 123.961 28.5415C124.539 29.0206 124.829 29.551 124.829 30.1328C124.829 32.1862 123.604 34.1539 121.155 36.0362C120.406 36.6179 119.352 37.1484 117.991 37.6275C116.63 38.0724 115.593 38.2948 114.879 38.2948ZM123.451 30.0815C123.451 29.397 123.179 29.0548 122.635 29.0548C121.682 29.0548 120.236 30.2355 118.297 32.5968C117.141 34.0342 116.12 35.6426 115.236 37.4222C115.814 37.4222 116.648 37.2168 117.736 36.8062C118.859 36.3955 119.828 35.8479 120.645 35.1635C122.515 33.555 123.451 31.861 123.451 30.0815ZM123.915 42.0935C123.915 39.253 125.276 34.4962 127.997 27.8228H125.344C125.174 27.8228 125.054 27.7373 124.986 27.5662C124.952 27.3608 124.969 27.1726 125.037 27.0015C125.14 26.7962 125.276 26.6935 125.446 26.6935H128.507C129.732 23.9899 130.871 21.7313 131.926 19.9175C132.98 18.1037 133.95 16.8888 134.834 16.2728C135.719 15.6226 136.348 15.2975 136.722 15.2975C137.131 15.2975 137.42 15.3317 137.59 15.4002C138.372 15.7766 138.763 16.5637 138.763 17.7615C138.763 18.925 138.372 20.3453 137.59 22.0222C136.807 23.699 136.042 25.2562 135.294 26.6935H137.743C137.913 26.6935 138.015 26.7962 138.049 27.0015C138.117 27.1726 138.1 27.3608 137.998 27.5662C137.93 27.7373 137.811 27.8228 137.641 27.8228H134.681C132.81 31.0055 130.548 33.8288 127.895 36.2928L126.721 41.5288C126.619 41.9737 126.568 42.4186 126.568 42.8635C126.568 43.2741 126.687 43.7019 126.925 44.1468C127.164 44.5917 127.538 44.8142 128.048 44.8142C128.626 44.8142 129.273 44.6088 129.987 44.1982C131.62 42.9662 133.423 40.3824 135.396 36.4468C135.532 36.1388 135.685 35.9506 135.855 35.8822C136.059 35.8137 136.178 35.865 136.212 36.0362C136.246 36.173 136.195 36.4126 136.059 36.7548C134.936 39.1162 134.052 40.793 133.406 41.7855C131.569 44.7628 129.613 46.2515 127.538 46.2515C126.483 46.2515 125.616 45.8579 124.935 45.0708C124.255 44.2837 123.915 43.2913 123.915 42.0935ZM134.171 26.6935C136.416 22.6553 137.539 19.849 137.539 18.2748C137.539 17.5904 137.42 17.2482 137.182 17.2482C136.807 17.2482 136.229 17.7957 135.447 18.8908C134.698 19.9859 133.423 22.5868 131.62 26.6935H134.171ZM133.508 27.8228H131.11C130.701 28.781 129.783 31.0568 128.354 34.6502C130.191 32.7337 131.909 30.4579 133.508 27.8228Z" fill="#FAFAFA"/>
<path d="M64.9888 61.2224H66.516C66.6854 61.2224 66.8407 61.245 66.9819 61.29C67.1248 61.3335 67.2477 61.3986 67.3506 61.4856C67.4554 61.5708 67.5359 61.6777 67.5923 61.8064C67.6505 61.9351 67.6796 62.0829 67.6796 62.2501C67.6796 62.3887 67.6513 62.5199 67.5949 62.6437C67.5384 62.7657 67.4586 62.8726 67.3557 62.9645C67.2527 63.0564 67.129 63.1291 66.9844 63.1825C66.8416 63.236 66.6822 63.2627 66.5062 63.2627H65.8359V64.5911H66.2146V65.0223H64.9888V64.5911H65.3475V61.656H64.9888V61.2224ZM65.8359 61.656V62.8515H66.516C66.6108 62.8515 66.6972 62.8391 66.7752 62.8141C66.8548 62.7872 66.923 62.7489 66.9795 62.6987C67.0377 62.6486 67.0824 62.586 67.114 62.5107C67.1472 62.4356 67.1639 62.3487 67.1639 62.2501C67.1639 62.0629 67.1074 61.9175 66.9945 61.8139C66.8815 61.7087 66.7013 61.656 66.4538 61.656H65.8359ZM70.0788 64.5911H70.3928L70.0938 63.7288H68.6412L68.3497 64.5911H68.7385V65.0223H67.5127V64.5911H67.8415L69.0175 61.2224H69.7526L70.926 64.5911H71.3048V65.0223H70.0788V64.5911ZM68.7833 63.3129H69.9494L69.3614 61.6134L68.7833 63.3129ZM74.0229 61.2224H75.2487V61.656H74.9273V65.0223H74.2894L72.533 61.8716V64.5911H72.9216V65.0223H71.6958V64.5911H72.0447V61.656H71.6859V61.2174H72.7024L74.4265 64.338L74.4464 64.2177V61.656H74.0229V61.2224ZM77.9669 64.5911H78.2808L77.9818 63.7288H76.5293L76.2378 64.5911H76.6266V65.0223H75.4008V64.5911H75.7296L76.9055 61.2224H77.6405L78.8141 64.5911H79.1927V65.0223H77.9669V64.5911ZM76.6713 63.3129H77.8374L77.2494 61.6134L76.6713 63.3129ZM79.574 61.2224H80.9791C81.1519 61.2224 81.3164 61.245 81.4725 61.29C81.6286 61.3352 81.7739 61.3986 81.9084 61.4806C82.043 61.5624 82.1651 61.661 82.2748 61.7763C82.3843 61.8899 82.4774 62.017 82.5537 62.1573C82.6318 62.2977 82.6917 62.4489 82.7332 62.611C82.7747 62.7715 82.7954 62.9385 82.7954 63.1123C82.7954 63.2894 82.7747 63.459 82.7332 63.6212C82.6917 63.7832 82.6318 63.9352 82.5537 64.0774C82.4774 64.2194 82.3843 64.3488 82.2748 64.4658C82.1651 64.5811 82.043 64.6806 81.9084 64.7641C81.7739 64.846 81.6286 64.9095 81.4725 64.9545C81.3164 64.9997 81.1519 65.0223 80.9791 65.0223H79.574V64.5911H79.9327V61.656H79.574V61.2224ZM80.421 61.656V64.5911H81.009C81.1835 64.5911 81.347 64.5527 81.4999 64.4759C81.6543 64.3989 81.7889 64.2945 81.9035 64.1626C82.0181 64.0288 82.1086 63.8726 82.1751 63.6938C82.2415 63.5134 82.2748 63.3195 82.2748 63.1123C82.2748 62.9084 82.2415 62.7179 82.1751 62.5408C82.1086 62.3637 82.0181 62.2099 81.9035 62.0797C81.7889 61.9476 81.6543 61.844 81.4999 61.7688C81.347 61.6936 81.1835 61.656 81.009 61.656H80.421ZM83.3312 61.2224H86.0369V62.2977H85.5261V61.656H84.1782V62.8717H85.3118V63.3028H84.1782V64.5911H85.5261V63.9494H86.0369V65.0223H83.3312V64.5911H83.6899V61.656H83.3312V61.2224ZM86.5351 61.2224H88.1074C88.2751 61.2224 88.4295 61.245 88.5707 61.29C88.7135 61.3335 88.8365 61.3986 88.9394 61.4856C89.044 61.5708 89.1255 61.6777 89.1837 61.8064C89.2418 61.9351 89.2707 62.0829 89.2707 62.2501C89.2707 62.3452 89.2534 62.4397 89.2185 62.5333C89.1852 62.6252 89.1379 62.7112 89.0765 62.7915C89.0166 62.87 88.9452 62.9402 88.8622 63.002C88.7792 63.0639 88.6887 63.1115 88.5906 63.1448C88.6322 63.1633 88.6737 63.19 88.7152 63.2251C88.7584 63.2584 88.7982 63.3004 88.8348 63.3503C88.8731 63.3989 88.9071 63.4549 88.937 63.5184C88.9685 63.5801 88.9935 63.647 89.0117 63.7189L89.2209 64.5461H89.5473L89.5524 65.0223H88.8173L88.5358 63.8668C88.4843 63.6595 88.4055 63.5074 88.2992 63.4106C88.1944 63.312 88.0509 63.2627 87.868 63.2627H87.3823V64.5911H87.7609V65.0223H86.5351V64.5911H86.894V61.656H86.5351V61.2224ZM87.3823 61.656V62.8515H88.1074C88.2019 62.8515 88.2883 62.8391 88.3664 62.8141C88.4462 62.7889 88.5142 62.7514 88.5707 62.7013C88.6288 62.6512 88.6737 62.5892 88.7052 62.5158C88.7386 62.4405 88.755 62.3536 88.755 62.2551C88.755 62.0663 88.6986 61.9192 88.5856 61.8139C88.4727 61.7087 88.2933 61.656 88.0475 61.656H87.3823ZM90.1678 61.2224H91.3737V61.656H91.0148V64.5911H91.3737V65.0223H90.1678V64.5911H90.5265V61.656H90.1678V61.2224ZM94.3211 64.5911H94.6349L94.3361 63.7288H92.8835L92.592 64.5911H92.9807V65.0223H91.7548V64.5911H92.0836L93.2598 61.2224H93.9947L95.1681 64.5911H95.5469V65.0223H94.3211V64.5911ZM93.0256 63.3129H94.1915L93.6035 61.6134L93.0256 63.3129ZM96.8151 61.2224H98.0409V61.656H97.6822L98.3921 62.8767L99.152 61.656H98.7585V61.2224H99.9843V61.656H99.6628L98.6015 63.2752V64.5911H98.9901V65.0223H97.7643V64.5911H98.1106V63.2627L97.109 61.656H96.8151V61.2224ZM103.47 62.2551C103.47 62.1081 103.443 61.9977 103.39 61.9243C103.337 61.8507 103.278 61.7948 103.213 61.7563C103.15 61.7162 103.08 61.6861 103.004 61.6661C102.927 61.6444 102.851 61.6334 102.775 61.6334C102.648 61.6334 102.538 61.6485 102.443 61.6786C102.349 61.707 102.27 61.7462 102.207 61.7963C102.145 61.8464 102.099 61.905 102.067 61.9719C102.035 62.0386 102.02 62.1089 102.02 62.1823C102.02 62.2927 102.039 62.382 102.077 62.4506C102.117 62.5174 102.167 62.5718 102.226 62.6135C102.286 62.6536 102.352 62.6854 102.423 62.7087C102.496 62.7321 102.566 62.7556 102.633 62.779L103.136 62.9443C103.287 62.9929 103.42 63.048 103.535 63.1098C103.651 63.1717 103.748 63.2451 103.826 63.3303C103.904 63.414 103.963 63.5108 104.003 63.6212C104.045 63.7314 104.065 63.8592 104.065 64.0047C104.065 64.1617 104.033 64.307 103.968 64.4408C103.905 64.5745 103.816 64.6907 103.701 64.7892C103.587 64.8878 103.45 64.9655 103.29 65.0223C103.133 65.0774 102.959 65.1049 102.77 65.1049C102.575 65.1049 102.409 65.0825 102.271 65.0373C102.133 64.9939 102.017 64.9353 101.923 64.8618C101.83 64.7866 101.755 64.7014 101.698 64.6061C101.642 64.511 101.598 64.4131 101.566 64.3128H101.377V63.8818H102.005C102.005 64.0673 102.024 64.1985 102.062 64.2754C102.102 64.3522 102.157 64.4165 102.226 64.4684C102.296 64.5185 102.379 64.5568 102.476 64.5837C102.572 64.6087 102.678 64.6212 102.795 64.6212C102.908 64.6212 103.009 64.6078 103.099 64.5811C103.19 64.5544 103.267 64.5159 103.33 64.4658C103.395 64.414 103.444 64.3522 103.477 64.2803C103.512 64.2067 103.53 64.1241 103.53 64.0322C103.53 63.9302 103.508 63.8442 103.465 63.774C103.423 63.7021 103.369 63.6412 103.303 63.5911C103.236 63.541 103.163 63.5001 103.084 63.4682C103.005 63.4364 102.93 63.4089 102.857 63.3856L102.311 63.23C102.192 63.1934 102.082 63.1465 101.982 63.0897C101.884 63.0329 101.8 62.9636 101.728 62.8817C101.658 62.7999 101.604 62.7046 101.566 62.5959C101.528 62.4857 101.509 62.3588 101.509 62.215C101.509 62.0696 101.537 61.9334 101.594 61.8064C101.65 61.6794 101.733 61.5682 101.843 61.4731C101.952 61.3778 102.086 61.3035 102.244 61.2499C102.403 61.1948 102.585 61.1673 102.79 61.1673C102.924 61.1673 103.048 61.183 103.161 61.2149C103.275 61.2467 103.378 61.2917 103.47 61.3502C103.563 61.407 103.644 61.4763 103.714 61.5583C103.785 61.6385 103.845 61.727 103.893 61.824H104.08V62.2551H103.47ZM106.783 64.5911H107.097L106.798 63.7288H105.346L105.054 64.5911H105.443V65.0223H104.217V64.5911H104.546L105.722 61.2224H106.457L107.631 64.5911H108.009V65.0223H106.783V64.5911ZM105.488 63.3129H106.654L106.066 61.6134L105.488 63.3129ZM108.391 61.2224H109.616V61.656H109.238V64.5911H110.541C110.567 64.5911 110.594 64.5852 110.62 64.5736C110.647 64.5603 110.671 64.5435 110.693 64.5235C110.714 64.5035 110.732 64.4809 110.745 64.4557C110.758 64.429 110.765 64.4023 110.765 64.3756V63.8969H111.238V65.0223H108.391V64.5911H108.749V61.656H108.391V61.2224ZM112.008 64.5911H112.354V61.6334H111.492V62.2249H110.982V61.2224H114.35V62.2249H113.839V61.6334H112.843V64.5911H113.231V65.0223H112.008V64.5911ZM114.809 61.2224H117.514V62.2977H117.004V61.656H115.656V62.8717H116.789V63.3028H115.656V64.5911H117.004V63.9494H117.514V65.0223H114.809V64.5911H115.167V61.656H114.809V61.2224ZM120.35 61.2224H121.575V61.656H121.254V65.0223H120.616L118.86 61.8716V64.5911H119.248V65.0223H118.023V64.5911H118.371V61.656H118.013V61.2174H119.029L120.753 64.338L120.773 64.2177V61.656H120.35V61.2224ZM119.458 60.2724C119.541 60.2724 119.612 60.2866 119.672 60.315C119.733 60.3417 119.79 60.3718 119.841 60.4053C119.894 60.437 119.947 60.4663 119.998 60.493C120.05 60.5198 120.108 60.5332 120.173 60.5332C120.219 60.5332 120.264 60.5172 120.307 60.4854C120.352 60.4538 120.382 60.4028 120.397 60.3326L120.693 60.4202C120.66 60.5624 120.595 60.6726 120.499 60.7512C120.403 60.828 120.287 60.8665 120.153 60.8665C120.06 60.8665 119.981 60.854 119.916 60.8288C119.851 60.8022 119.792 60.7737 119.739 60.7436C119.686 60.7135 119.636 60.686 119.59 60.661C119.543 60.6341 119.493 60.6208 119.438 60.6208C119.413 60.6208 119.387 60.6225 119.361 60.6259C119.336 60.6292 119.311 60.6375 119.286 60.6509C119.261 60.6625 119.238 60.6819 119.216 60.7086C119.196 60.7337 119.18 60.7695 119.169 60.8164L118.897 60.6836C118.919 60.605 118.949 60.5398 118.989 60.488C119.029 60.4344 119.074 60.3918 119.124 60.3602C119.174 60.3283 119.227 60.3059 119.283 60.2924C119.341 60.2791 119.4 60.2724 119.458 60.2724ZM122.059 61.2224H124.765V62.2977H124.254V61.656H122.906V62.8717H124.039V63.3028H122.906V64.5911H124.254V63.9494H124.765V65.0223H122.059V64.5911H122.418V61.656H122.059V61.2224ZM125.263 61.2224H126.835C127.003 61.2224 127.157 61.245 127.298 61.29C127.441 61.3335 127.564 61.3986 127.667 61.4856C127.772 61.5708 127.853 61.6777 127.911 61.8064C127.969 61.9351 127.999 62.0829 127.999 62.2501C127.999 62.3452 127.981 62.4397 127.946 62.5333C127.913 62.6252 127.866 62.7112 127.804 62.7915C127.744 62.87 127.673 62.9402 127.59 63.002C127.507 63.0639 127.416 63.1115 127.318 63.1448C127.36 63.1633 127.401 63.19 127.443 63.2251C127.486 63.2584 127.526 63.3004 127.562 63.3503C127.601 63.3989 127.635 63.4549 127.665 63.5184C127.696 63.5801 127.721 63.647 127.739 63.7189L127.949 64.5461H128.275L128.28 65.0223H127.545L127.263 63.8668C127.212 63.6595 127.133 63.5074 127.027 63.4106C126.922 63.312 126.779 63.2627 126.596 63.2627H126.11V64.5911H126.489V65.0223H125.263V64.5911H125.622V61.656H125.263V61.2224ZM126.11 61.656V62.8515H126.835C126.93 62.8515 127.016 62.8391 127.094 62.8141C127.174 62.7889 127.242 62.7514 127.298 62.7013C127.356 62.6512 127.401 62.5892 127.433 62.5158C127.466 62.4405 127.483 62.3536 127.483 62.2551C127.483 62.0663 127.426 61.9192 127.313 61.8139C127.2 61.7087 127.021 61.656 126.775 61.656H126.11ZM128.895 61.2224H130.101V61.656H129.743V64.5911H130.101V65.0223H128.895V64.5911H129.254V61.656H128.895V61.2224ZM133.049 64.5911H133.363L133.064 63.7288H131.611L131.32 64.5911H131.708V65.0223H130.482V64.5911H130.811L131.987 61.2224H132.722L133.896 64.5911H134.275V65.0223H133.049V64.5911ZM131.753 63.3129H132.919L132.331 61.6134L131.753 63.3129Z" fill="#FAFAFA"/>
<path d="M170.085 59.8889C184.176 59.8889 195.598 48.3976 195.598 34.2222C195.598 20.0469 184.176 8.55557 170.085 8.55557C155.995 8.55557 144.573 20.0469 144.573 34.2222C144.573 48.3976 155.995 59.8889 170.085 59.8889Z" fill="#603015"/>
<path d="M154.519 35.8148C154.701 36.2975 154.406 36.5668 154.11 36.8846C152.85 38.2278 152.726 40.5885 153.83 41.8875C154.559 42.7441 155.419 42.9371 156.454 42.6596C158.673 42.0645 160.932 41.6543 163.21 42.0243C166.198 42.5109 169.19 42.6717 172.205 42.6194C174.358 42.5833 176.489 42.2695 178.622 41.988C180.743 41.7065 182.833 42.0886 184.89 42.5994C187.123 43.1543 188.836 41.3687 188.337 38.8794C188.166 38.0227 187.82 37.2706 187.193 36.7196C186.953 36.5066 186.897 36.2773 186.909 35.9515C186.966 34.2586 186.274 33.0399 184.912 32.2839C184.711 32.1713 184.594 32.0507 184.543 31.7892C184.22 30.08 183.257 29.0546 181.719 28.6846C181.474 28.6242 181.34 28.5075 181.216 28.2502C180.52 26.7943 179.413 26.0664 177.918 26.0906C177.593 26.0947 177.357 26.0384 177.105 25.7487C176.078 24.5543 174.814 24.2166 173.392 24.7032C173.101 24.8036 172.919 24.7554 172.659 24.5906C171.366 23.746 170.043 23.7299 168.764 24.6267C168.509 24.8036 168.337 24.7836 168.086 24.6991C166.636 24.2166 165.364 24.5745 164.318 25.785C164.132 26.0021 163.972 26.1108 163.684 26.0986C162.117 26.0303 160.94 26.7663 160.226 28.3106C160.094 28.5961 159.919 28.6444 159.701 28.6966C158.21 29.0626 157.281 30.0761 156.939 31.7047C156.866 32.0546 156.72 32.1874 156.465 32.3322C155.208 33.056 154.592 34.2344 154.519 35.8148Z" fill="#FAFAFA"/>
<path d="M157.879 33.1279C156.118 33.4576 155.561 34.6279 155.903 36.5382C155.987 37.0007 155.794 37.25 155.437 37.4671C154.479 38.0544 154.059 39.2609 154.402 40.3587C154.675 41.2434 155.28 41.5572 156.115 41.3359C159.088 40.5598 162.073 40.419 165.12 40.9097C168.829 41.5089 172.579 41.5048 176.288 40.9217C179.42 40.4311 182.481 40.5276 185.531 41.4083C186.267 41.6215 186.982 41.0182 187.135 40.0853C187.313 39.0034 186.902 37.9859 186.022 37.4551C185.607 37.2058 185.47 36.9363 185.604 36.4054C185.958 35.018 185.298 33.7713 184.019 33.3812C183.534 33.2325 183.356 32.9669 183.359 32.4039C183.374 31.0929 182.367 29.9629 181.177 29.9748C180.571 29.9829 180.345 29.7457 180.204 29.1143C179.944 27.9239 178.665 27.1678 177.522 27.5136C176.999 27.6705 176.726 27.5459 176.46 27.0311C175.87 25.8808 174.508 25.4626 173.468 26.1302C172.98 26.444 172.667 26.3997 172.269 25.9693C171.38 25.0042 169.996 25.0445 169.132 26.0417C168.815 26.4077 168.534 26.4479 168.141 26.2188C166.861 25.4626 165.71 25.8126 164.937 27.188C164.73 27.5579 164.482 27.6666 164.099 27.57C162.623 27.1839 161.628 27.8194 161.188 29.4239C161.078 29.8181 160.859 29.9709 160.502 29.9829C158.968 30.0472 158.221 30.8636 158.104 32.585C158.09 32.79 158.072 32.9106 158.043 33.1158" fill="#603015"/>
<path d="M157.995 33.2446C157.868 33.5582 157.926 33.8399 158.148 34.057C158.6 34.4993 159.056 34.9377 159.529 35.352C159.81 35.5972 160.131 35.5731 160.368 35.2716C160.604 34.9699 160.59 34.6241 160.309 34.3506C159.857 33.9081 159.398 33.4739 158.924 33.0596C158.604 32.7821 158.301 32.9188 158.028 33.1883L157.995 33.2446Z" fill="#FAFAFA"/>
<path d="M170.087 28.3303C170.087 28.652 170.068 28.9737 170.091 29.2954C170.116 29.6855 170.313 29.9389 170.684 29.955C171.067 29.9711 171.281 29.6976 171.303 29.3275C171.344 28.6439 171.341 27.9521 171.303 27.2644C171.286 26.9147 171.052 26.6733 170.722 26.6693C170.364 26.6652 170.135 26.9066 170.097 27.3007C170.068 27.6426 170.091 27.9884 170.091 28.3303C170.091 28.3303 170.091 28.3303 170.087 28.3303Z" fill="#FAFAFA"/>
<path d="M168.855 29.3917C168.757 28.7603 168.673 28.125 168.549 27.4975C168.476 27.1237 168.235 26.8702 167.875 26.9306C167.496 26.995 167.292 27.2965 167.35 27.7268C167.434 28.3623 167.543 28.9896 167.656 29.6171C167.729 30.0031 167.973 30.2363 168.327 30.1881C168.713 30.1318 168.891 29.8342 168.855 29.3917Z" fill="#FAFAFA"/>
<path d="M164.241 31.2059C163.935 30.5384 163.618 29.7944 163.134 29.1669C162.959 28.9378 162.685 28.9498 162.449 29.1267C162.19 29.3197 162.088 29.6174 162.219 29.9029C162.518 30.5545 162.849 31.1859 163.203 31.8012C163.363 32.0785 163.655 32.1188 163.928 31.9701C164.176 31.8292 164.271 31.5839 164.241 31.2059Z" fill="#FAFAFA"/>
<path d="M155.94 38.1752C155.492 38.1912 155.295 38.3843 155.211 38.694C155.116 39.0357 155.284 39.3132 155.535 39.4338C156.122 39.7153 156.731 39.9487 157.339 40.1659C157.638 40.2743 157.875 40.0694 158.002 39.7918C158.137 39.4982 158.105 39.1404 157.831 39.0035C157.179 38.6698 156.49 38.4123 155.94 38.1752Z" fill="#FAFAFA"/>
<path d="M159.107 37.0371C159.081 36.7678 158.961 36.5748 158.746 36.4379C158.279 36.1445 157.82 35.8388 157.35 35.5492C157.026 35.3481 156.68 35.3361 156.472 35.71C156.257 36.0921 156.363 36.4661 156.723 36.7035C157.204 37.0171 157.682 37.3388 158.181 37.6163C158.64 37.8737 159.118 37.5601 159.107 37.0371Z" fill="#FAFAFA"/>
<path d="M183.442 33.631C183.464 33.1001 182.983 32.718 182.597 33.0077C182.036 33.4298 181.529 33.9406 181.024 34.4433C180.82 34.6484 180.837 34.9299 180.99 35.1953C181.146 35.4648 181.401 35.6015 181.628 35.4687C182.303 35.0666 182.867 34.4956 183.381 33.8682C183.432 33.8079 183.429 33.6954 183.442 33.631Z" fill="#FAFAFA"/>
<path d="M181.5 31.4631C181.503 31.1857 181.398 30.9725 181.177 30.8478C180.935 30.7111 180.677 30.7071 180.488 30.9403C180.061 31.4711 179.649 32.0141 179.251 32.5691C179.081 32.8063 179.11 33.0919 179.277 33.3332C179.43 33.5544 179.646 33.6148 179.889 33.5624C180.199 33.4901 181.486 31.8091 181.5 31.4631Z" fill="#FAFAFA"/>
<path d="M176.738 28.5477C176.734 28.0852 176.588 27.8479 176.297 27.7555C176.001 27.6629 175.727 27.7715 175.615 28.0771C175.363 28.7488 175.134 29.4365 174.936 30.1322C174.846 30.458 175.028 30.7073 175.302 30.844C175.593 30.9888 175.877 30.8923 175.998 30.5986C176.285 29.8949 176.518 29.163 176.738 28.5477Z" fill="#FAFAFA"/>
<path d="M172.55 29.3878C172.55 29.8584 172.718 30.1238 173.038 30.1881C173.36 30.2525 173.637 30.0795 173.713 29.7256C173.861 29.034 173.989 28.3382 174.071 27.6345C174.106 27.2926 173.899 27.0191 173.577 26.9387C173.235 26.8583 172.977 27.0713 172.9 27.3971C172.735 28.0848 172.649 28.7925 172.55 29.3878Z" fill="#FAFAFA"/>
<path d="M182.992 37.7207C183.633 37.3707 184.39 37.0371 184.959 36.3816C185.116 36.2005 185.072 35.8988 184.912 35.6778C184.733 35.4324 184.485 35.3398 184.245 35.4807C183.658 35.8225 183.075 36.1844 182.517 36.5785C182.294 36.7354 182.243 37.0208 182.361 37.3145C182.463 37.5679 182.634 37.7005 182.992 37.7207Z" fill="#FAFAFA"/>
<path d="M178.622 29.0062C178.367 29.0183 178.199 29.1792 178.078 29.4044C177.794 29.9352 177.513 30.4701 177.236 31.0049C177.037 31.3951 177.139 31.7328 177.465 31.9461C177.78 32.151 178.074 32.0426 178.265 31.7007C178.574 31.1336 178.887 30.5666 179.153 29.9754C179.365 29.5089 179.063 28.9982 178.622 29.0062Z" fill="#FAFAFA"/>
<path d="M185.473 38.1752C184.893 38.4164 184.245 38.6577 183.624 38.9594C183.311 39.1122 183.279 39.4741 183.407 39.7918C183.522 40.0854 183.771 40.2663 184.066 40.1618C184.674 39.9446 185.279 39.7033 185.869 39.4338C186.176 39.2932 186.256 38.9754 186.165 38.6255C186.077 38.2797 185.83 38.1952 185.473 38.1752Z" fill="#FAFAFA"/>
<path d="M164.69 28.5995C164.894 29.1707 165.127 29.8986 165.415 30.6024C165.52 30.8637 165.783 30.9723 166.056 30.8678C166.344 30.7591 166.519 30.5259 166.461 30.1881C166.333 29.424 166.063 28.7002 165.761 28.0044C165.63 27.7028 165.327 27.6586 165.05 27.7792C164.795 27.8877 164.668 28.117 164.69 28.5995Z" fill="#FAFAFA"/>
<path d="M162.241 32.8225C162.204 32.7382 162.168 32.5732 162.08 32.4567C161.712 31.9579 161.337 31.4632 160.951 30.9848C160.721 30.6992 160.43 30.6871 160.164 30.8963C159.865 31.1335 159.806 31.4834 160.029 31.8051C160.404 32.3561 160.812 32.8788 161.224 33.3976C161.41 33.635 161.683 33.635 161.92 33.5183C162.142 33.4098 162.248 33.1766 162.241 32.8225Z" fill="#FAFAFA"/>
</svg>
