<svg width="148" height="57" viewBox="0 0 148 57" fill="none" xmlns="http://www.w3.org/2000/svg">
<path d="M16.3559 20.5961C16.3559 18.8481 15.5336 17.9741 13.8892 17.9741C13.6615 17.9741 13.3832 17.9994 13.0543 18.0501C12.7254 18.0754 12.4977 17.9868 12.3712 17.7841C12.1689 17.5054 12.4977 17.3154 13.3579 17.2141C13.6615 17.1634 13.9651 17.1381 14.2687 17.1381C15.736 17.1381 16.7354 17.7714 17.2666 19.0381C17.4943 19.5701 17.6082 20.2541 17.6082 21.0901C17.6082 21.9008 17.254 22.9268 16.5456 24.1681C15.306 26.4228 13.3579 28.1074 10.7015 29.2221C9.81604 29.6021 8.89262 29.7921 7.93125 29.7921C6.99518 29.7921 6.02116 29.5514 5.0092 29.0701C3.13706 28.1834 1.83416 26.7014 1.10048 24.6241C0.82219 23.8134 0.683044 22.8001 0.683044 21.5841C0.683044 20.3428 1.02458 18.7848 1.70766 16.9101C3.27621 13.2368 5.85672 10.1081 9.4492 7.5241C13.2947 4.73744 16.8871 3.3441 20.2266 3.3441C23.0601 3.3441 24.9576 4.4841 25.9189 6.7641C26.349 7.7521 26.5641 8.94277 26.5641 10.3361C26.5641 10.7921 26.5388 11.2608 26.4882 11.7421C26.2352 13.9461 25.5774 16.4668 24.5148 19.3041C24.3377 19.7854 24.2492 20.1148 24.2492 20.2921C24.2492 20.4441 24.2871 20.5201 24.363 20.5201C24.4895 20.5454 24.7046 20.2794 25.0082 19.7221C26.8803 16.3021 28.9422 13.2368 31.1938 10.5261C31.9275 9.63944 32.813 8.91744 33.8502 8.3601C34.9887 7.7521 36.0007 7.4481 36.8861 7.4481C37.7969 7.4481 38.5053 7.77744 39.0112 8.4361C39.5425 9.09477 39.8082 9.96877 39.8082 11.0581C39.8082 13.6168 38.8089 17.8854 36.8102 23.8641C36.4054 25.0548 36.1524 25.8148 36.0512 26.1441C38.1005 22.9268 40.6683 19.3928 43.7548 15.5421C46.8666 11.6661 49.6242 9.37344 52.0277 8.6641C52.4577 8.53744 52.8372 8.4741 53.1661 8.4741C54.1275 8.4741 54.7473 8.95544 55.0256 9.9181C55.1268 10.2474 55.1774 10.6274 55.1774 11.0581C55.1774 12.3501 54.6714 14.0094 53.6595 16.0361C51.5849 20.1908 50.1682 23.4968 49.4092 25.9541C48.3719 29.1968 47.8533 31.4134 47.8533 32.6041C47.8533 33.7948 47.9671 34.7828 48.1948 35.5681C48.6502 37.1388 49.8519 37.9241 51.8 37.9241C51.9012 37.9241 52.1036 37.9114 52.4071 37.8861C52.736 37.8861 52.9131 37.9494 52.9384 38.0761C52.989 38.2028 52.9005 38.3168 52.6728 38.4181C52.4704 38.5194 52.2554 38.5701 52.0277 38.5701C51.8253 38.5701 51.6608 38.5574 51.5343 38.5321C47.5371 38.1268 45.5384 36.0748 45.5384 32.3761C45.5384 31.0334 45.8041 29.5134 46.3354 27.8161C46.8919 26.0934 47.36 24.7761 47.7395 23.8641C48.3466 22.3948 49.6242 19.5194 51.5723 15.2381C52.2554 13.6421 52.5969 12.4261 52.5969 11.5901C52.5969 10.7541 52.2427 10.3361 51.5343 10.3361C50.5477 10.3361 49.0171 11.3494 46.9425 13.3761C45.88 14.4401 44.7289 15.7448 43.4892 17.2901C42.2495 18.8101 40.4154 21.4954 37.9866 25.3461C35.5579 29.1714 34.0147 31.8694 33.3569 33.4401C32.775 34.8081 32.0034 35.4921 31.042 35.4921C30.3589 35.4921 29.9542 35.2514 29.8277 34.7701C29.7518 34.5674 29.7518 34.4028 29.8277 34.2761C29.9036 34.1748 30.1439 33.7568 30.5487 33.0221C30.9535 32.2874 31.3709 31.5148 31.801 30.7041C32.2311 29.8934 32.7371 28.7914 33.3189 27.3981C33.9261 26.0048 34.4827 24.5861 34.9887 23.1421C36.203 19.5701 37.0253 15.8968 37.4554 12.1221C37.506 11.6914 37.5312 11.1594 37.5312 10.5261C37.5312 9.86744 37.3542 9.3481 37 8.9681C36.6711 8.5881 36.3169 8.3981 35.9374 8.3981C34.6977 8.3981 33.3316 9.33544 31.8389 11.2101C29.815 13.7181 28.0567 16.1881 26.5641 18.6201C25.0714 21.0268 23.9203 23.0534 23.1107 24.7001C22.3265 26.3468 21.403 28.3354 20.3405 30.6661C19.3032 32.9714 18.7466 34.2001 18.6707 34.3521C18.6201 34.5041 18.5316 34.6941 18.4051 34.9221C18.3039 35.1501 18.2154 35.3654 18.1395 35.5681C17.8106 36.3028 17.1022 36.6701 16.0143 36.6701C15.3818 36.6701 15.0403 36.4674 14.9897 36.0621C14.9897 35.9861 15.0024 35.8974 15.0277 35.7961C16.6974 33.2121 18.5442 29.2981 20.5682 24.0541C23.1487 17.4168 24.4389 12.5781 24.4389 9.5381C24.4389 5.91544 22.9463 4.1041 19.961 4.1041C18.0383 4.1041 15.6095 5.02877 12.6748 6.8781C9.76544 8.72744 7.34937 11.0961 5.42663 13.9841C4.66766 15.1241 4.09843 16.2261 3.71894 17.2901C3.06116 19.2408 2.73228 20.7861 2.73228 21.9261C2.73228 25.1941 3.82014 27.3474 5.99586 28.3861C6.75484 28.7661 7.52646 28.9561 8.31074 28.9561C11.043 28.9561 13.282 27.4741 15.0277 24.5101C15.9131 23.0154 16.3559 21.7108 16.3559 20.5961ZM64.1371 23.9021C63.6817 24.3581 63.0366 25.3968 62.2017 27.0181C61.3668 28.6141 60.8609 29.8174 60.6838 30.6281C60.532 31.4134 60.4561 32.0594 60.4561 32.5661C60.4561 33.0474 60.6458 33.2881 61.0253 33.2881C61.506 33.2881 62.1005 32.8448 62.8089 31.9581C63.8462 30.6661 64.8708 28.9814 65.8827 26.9041C65.9839 26.6761 66.0978 26.5494 66.2243 26.5241C66.4267 26.4481 66.5279 26.5241 66.5279 26.7521C66.5279 26.8788 66.4899 27.0308 66.414 27.2081C64.0865 31.9201 62.1258 34.2761 60.532 34.2761C59.7983 34.2761 59.2038 33.9214 58.7484 33.2121C58.5207 32.8321 58.4068 32.3254 58.4068 31.6921C58.4068 31.0588 58.5333 30.2861 58.7863 29.3741C56.7624 32.6421 55.0168 34.2761 53.5494 34.2761C53.1446 34.2761 52.7778 34.1494 52.4489 33.8961C51.6899 33.3641 51.3104 32.4521 51.3104 31.1601C51.3104 28.6774 52.3856 26.1568 54.5361 23.5981C55.7504 22.1794 57.2431 21.2548 59.014 20.8241C59.4947 20.6974 59.9501 20.6341 60.3802 20.6341C61.5439 20.6341 62.5306 21.0394 63.3402 21.8501C63.5932 22.1288 63.6691 22.3948 63.5679 22.6481C63.4667 22.9014 63.2516 23.0028 62.9227 22.9521C62.6444 22.0401 62.0373 21.5841 61.1012 21.5841C60.0133 21.5841 58.6725 22.4454 57.0786 24.1681C56.1679 25.1814 55.3203 26.3721 54.5361 27.7401C53.5494 29.3868 53.0561 30.7041 53.0561 31.6921C53.0561 32.6801 53.3723 33.1741 54.0048 33.1741C55.5227 33.1741 57.5087 30.8434 59.9627 26.1821C60.4434 25.2448 60.8482 24.6114 61.1771 24.2821C61.506 23.9274 61.9234 23.7501 62.4294 23.7501C62.5306 23.7501 62.7836 23.7881 63.1884 23.8641C63.6185 23.9401 63.9347 23.9528 64.1371 23.9021ZM70.991 18.9621C70.991 20.1021 70.27 21.1788 68.8279 22.1921C69.3339 22.2174 70.0043 22.2301 70.8392 22.2301C71.6994 22.2301 72.7746 22.1668 74.0649 22.0401C74.1155 22.1161 74.1408 22.3188 74.1408 22.6481C74.1408 22.9774 73.989 23.4714 73.6854 24.1301C73.3818 24.7634 73.1035 25.3208 72.8505 25.8021C72.6228 26.2581 72.3951 26.7014 72.1674 27.1321C71.965 27.5374 71.7247 28.0441 71.4464 28.6521C71.1934 29.2601 70.9784 29.8174 70.8013 30.3241C70.1688 32.2494 70.27 33.2121 71.1049 33.2121C72.1674 33.2121 73.736 31.0968 75.8105 26.8661C75.9876 26.5368 76.1267 26.4101 76.2279 26.4861C76.3544 26.5621 76.4177 26.6634 76.4177 26.7901C76.4177 26.8914 76.2532 27.2841 75.9244 27.9681C75.5955 28.6268 75.2413 29.3108 74.8618 30.0201C74.4823 30.7294 73.8878 31.5528 73.0782 32.4901C72.1168 33.6554 71.1934 34.2381 70.3079 34.2381C69.3213 34.2381 68.6382 33.6428 68.2587 32.4521C68.1828 32.2241 68.1449 31.8821 68.1449 31.4261C68.1449 30.9701 68.284 30.3621 68.5623 29.6021C68.8659 28.8421 69.3339 27.9174 69.9664 26.8281C70.5989 25.7388 70.9531 25.1054 71.029 24.9281C71.1049 24.7254 71.1428 24.5354 71.1428 24.3581C71.1428 23.5728 70.1308 23.1548 68.1069 23.1041L67.6515 24.3201C66.0577 28.5001 64.5271 31.2994 63.0597 32.7181C62.8067 32.9461 62.6802 32.8701 62.6802 32.4901C62.6802 32.4141 62.7055 32.3254 62.7561 32.2241C64.1729 30.3494 65.3999 28.1328 66.4372 25.5741C67.4744 23.0154 68.1955 20.5834 68.6002 18.2781C68.752 17.4928 69.1062 17.1001 69.6628 17.1001C70.2194 17.1001 70.6242 17.4548 70.8772 18.1641C70.9531 18.3921 70.991 18.6581 70.991 18.9621ZM77.8129 26.8661C77.7876 26.9674 77.6738 27.3221 77.4714 27.9301C77.269 28.5128 77.0919 29.0828 76.9401 29.6401C76.8136 30.1721 76.7504 30.7168 76.7504 31.2741C76.7504 31.8061 76.8769 32.3128 77.1299 32.7941C77.3828 33.2501 77.7876 33.4781 78.3442 33.4781C79.255 33.4781 80.1405 32.8701 81.0006 31.6541C81.8608 30.4128 82.7716 28.8421 83.7329 26.9421C83.9353 26.5874 84.1251 26.4481 84.3022 26.5241C84.4287 26.6254 84.454 26.7648 84.3781 26.9421C84.3022 27.0941 84.1377 27.4488 83.8847 28.0061C83.657 28.5381 83.4799 28.9181 83.3534 29.1461C83.2522 29.3488 83.0499 29.7288 82.7463 30.2861C82.468 30.8181 82.215 31.2234 81.9873 31.5021C81.7849 31.7554 81.494 32.0974 81.1145 32.5281C80.7603 32.9334 80.4187 33.2374 80.0899 33.4401C79.2044 33.9974 78.3695 34.2761 77.5852 34.2761C76.801 34.2761 76.1938 34.1114 75.7637 33.7821C75.3336 33.4274 75.068 33.0601 74.9668 32.6801C74.8909 32.2748 74.8529 31.9201 74.8529 31.6161C74.8529 31.3121 74.8656 30.9194 74.8909 30.4381C74.9668 29.6274 75.1186 28.8421 75.3463 28.0821C75.5993 27.3221 75.7384 26.8914 75.7637 26.7901C76.3456 24.6874 77.1678 22.3948 78.2304 19.9121C79.3182 17.4294 80.229 15.5674 80.9627 14.3261C81.7217 13.0594 82.3162 12.1981 82.7463 11.7421C83.6064 10.8301 84.454 10.3741 85.2888 10.3741C85.8707 10.3741 86.2628 10.7921 86.4652 11.6281C86.4905 11.7801 86.5032 11.9701 86.5032 12.1981C86.5032 13.0594 86.1996 14.1488 85.5924 15.4661C83.4167 20.3048 80.8235 24.1048 77.8129 26.8661ZM78.1165 25.6501C79.4068 24.3328 80.6844 22.6734 81.9493 20.6721C83.2143 18.6708 84.1377 16.9734 84.7196 15.5801C85.3268 14.1614 85.6304 13.1988 85.6304 12.6921C85.6304 12.1854 85.5418 11.9321 85.3647 11.9321C85.1117 11.9321 84.631 12.4388 83.9227 13.4521C83.2143 14.4401 82.2529 16.2388 81.0386 18.8481C79.8495 21.4321 78.8755 23.6994 78.1165 25.6501ZM85.4373 28.3481C85.0831 29.2094 84.906 30.1721 84.906 31.2361C84.906 31.9454 85.0578 32.5154 85.3614 32.9461C85.6903 33.3514 86.1457 33.5541 86.7276 33.5541C89.0298 33.5541 91.117 31.3881 92.9891 27.0561C93.1662 26.6508 93.3813 26.4734 93.6343 26.5241C93.7355 26.5494 93.7861 26.6128 93.7861 26.7141C93.7861 26.8154 93.4951 27.4868 92.9132 28.7281C92.3566 29.9441 91.7874 30.9321 91.2055 31.6921C89.9153 33.4654 88.3214 34.3521 86.424 34.3521C85.412 34.3521 84.5519 34.0228 83.8435 33.3641C83.1351 32.7054 82.7809 31.8061 82.7809 30.6661C82.7809 29.5261 83.0466 28.3228 83.5778 27.0561C84.1344 25.7641 84.8807 24.5734 85.8168 23.4841C86.7529 22.3694 87.8281 21.5588 89.0425 21.0521C89.6243 20.7988 90.1809 20.6721 90.7122 20.6721C91.2435 20.6721 91.7368 20.8241 92.1922 21.1281C92.6223 21.4828 92.8373 21.8754 92.8373 22.3061C92.8373 23.8261 91.9266 25.2828 90.105 26.6761C89.5484 27.1068 88.7642 27.4994 87.7522 27.8541C86.7402 28.1834 85.9686 28.3481 85.4373 28.3481ZM91.8127 22.2681C91.8127 21.7614 91.6103 21.5081 91.2055 21.5081C90.4972 21.5081 89.4219 22.3821 87.9799 24.1301C87.1197 25.1941 86.3608 26.3848 85.703 27.7021C86.1331 27.7021 86.7529 27.5501 87.5625 27.2461C88.3973 26.9421 89.1184 26.5368 89.7255 26.0301C91.117 24.8394 91.8127 23.5854 91.8127 22.2681ZM92.1578 31.1601C92.1578 29.0574 93.1698 25.5361 95.1937 20.5961H93.2204C93.0939 20.5961 93.0053 20.5328 92.9547 20.4061C92.9294 20.2541 92.9421 20.1148 92.9927 19.9881C93.0686 19.8361 93.1698 19.7601 93.2963 19.7601H95.5732C96.4839 17.7588 97.3315 16.0868 98.1157 14.7441C98.9 13.4014 99.621 12.5021 100.279 12.0461C100.937 11.5648 101.405 11.3241 101.683 11.3241C101.987 11.3241 102.202 11.3494 102.328 11.4001C102.91 11.6788 103.201 12.2614 103.201 13.1481C103.201 14.0094 102.91 15.0608 102.328 16.3021C101.746 17.5434 101.177 18.6961 100.62 19.7601H102.442C102.568 19.7601 102.644 19.8361 102.67 19.9881C102.72 20.1148 102.708 20.2541 102.632 20.4061C102.581 20.5328 102.492 20.5961 102.366 20.5961H100.165C98.7735 22.9521 97.0911 25.0421 95.1178 26.8661L94.245 30.7421C94.1691 31.0714 94.1311 31.4008 94.1311 31.7301C94.1311 32.0341 94.2197 32.3508 94.3968 32.6801C94.5739 33.0094 94.8522 33.1741 95.2316 33.1741C95.6617 33.1741 96.1424 33.0221 96.6737 32.7181C97.8881 31.8061 99.2289 29.8934 100.696 26.9801C100.797 26.7521 100.911 26.6128 101.038 26.5621C101.19 26.5114 101.278 26.5494 101.303 26.6761C101.329 26.7774 101.291 26.9548 101.19 27.2081C100.355 28.9561 99.6969 30.1974 99.2163 30.9321C97.8501 33.1361 96.3954 34.2381 94.8522 34.2381C94.0679 34.2381 93.4228 33.9468 92.9168 33.3641C92.4108 32.7814 92.1578 32.0468 92.1578 31.1601ZM99.7855 19.7601C101.455 16.7708 102.29 14.6934 102.29 13.5281C102.29 13.0214 102.202 12.7681 102.024 12.7681C101.746 12.7681 101.316 13.1734 100.734 13.9841C100.178 14.7948 99.2289 16.7201 97.8881 19.7601H99.7855ZM99.2922 20.5961H97.5086C97.205 21.3054 96.5219 22.9901 95.4593 25.6501C96.8255 24.2314 98.1031 22.5468 99.2922 20.5961Z" fill="black"/>
<path d="M48.3334 45.3205H49.4692C49.5952 45.3205 49.7107 45.3372 49.8157 45.3705C49.9219 45.4027 50.0134 45.451 50.0899 45.5153C50.1678 45.5784 50.2276 45.6576 50.2696 45.7528C50.3129 45.8481 50.3345 45.9575 50.3345 46.0813C50.3345 46.1839 50.3135 46.281 50.2715 46.3726C50.2295 46.4629 50.1702 46.5421 50.0937 46.6101C50.017 46.6781 49.9251 46.7319 49.8176 46.7715C49.7113 46.8111 49.5928 46.8309 49.4618 46.8309H48.9633V47.8142H49.245V48.1334H48.3334V47.8142H48.6002V45.6415H48.3334V45.3205ZM48.9633 45.6415V46.5265H49.4692C49.5396 46.5265 49.6039 46.5172 49.662 46.4987C49.7212 46.4789 49.7719 46.4505 49.8139 46.4134C49.8571 46.3763 49.8904 46.3299 49.9139 46.2742C49.9386 46.2186 49.951 46.1542 49.951 46.0813C49.951 45.9427 49.909 45.835 49.825 45.7584C49.741 45.6805 49.6069 45.6415 49.4229 45.6415H48.9633ZM52.1189 47.8142H52.3524L52.13 47.1759H51.0497L50.8329 47.8142H51.1221V48.1334H50.2104V47.8142H50.455L51.3296 45.3205H51.8763L52.749 47.8142H53.0307V48.1334H52.1189V47.8142ZM51.1554 46.868H52.0226L51.5853 45.6099L51.1554 46.868ZM55.0522 45.3205H55.9639V45.6415H55.7248V48.1334H55.2504L53.9441 45.8011V47.8142H54.2331V48.1334H53.3215V47.8142H53.5809V45.6415H53.3141V45.3168H54.0701L55.3524 47.6268L55.3672 47.5378V45.6415H55.0522V45.3205ZM57.9854 47.8142H58.2189L57.9965 47.1759H56.9162L56.6994 47.8142H56.9886V48.1334H56.0769V47.8142H56.3215L57.196 45.3205H57.7426L58.6155 47.8142H58.897V48.1334H57.9854V47.8142ZM57.0219 46.868H57.8891L57.4518 45.6099L57.0219 46.868ZM59.1806 45.3205H60.2256C60.3541 45.3205 60.4765 45.3372 60.5926 45.3705C60.7087 45.404 60.8167 45.451 60.9168 45.5116C61.0168 45.5722 61.1077 45.6451 61.1893 45.7305C61.2707 45.8146 61.3399 45.9087 61.3967 46.0126C61.4548 46.1165 61.4993 46.2284 61.5302 46.3484C61.561 46.4672 61.5765 46.5908 61.5765 46.7195C61.5765 46.8506 61.561 46.9762 61.5302 47.0962C61.4993 47.2162 61.4548 47.3287 61.3967 47.4339C61.3399 47.5391 61.2707 47.6348 61.1893 47.7215C61.1077 47.8068 61.0168 47.8804 60.9168 47.9422C60.8167 48.0029 60.7087 48.0499 60.5926 48.0832C60.4765 48.1167 60.3541 48.1334 60.2256 48.1334H59.1806V47.8142H59.4474V45.6415H59.1806V45.3205ZM59.8106 45.6415V47.8142H60.2479C60.3777 47.8142 60.4992 47.7858 60.6129 47.7289C60.7278 47.6719 60.8279 47.5947 60.9131 47.497C60.9984 47.398 61.0657 47.2823 61.1151 47.1499C61.1645 47.0164 61.1893 46.8729 61.1893 46.7195C61.1893 46.5685 61.1645 46.4276 61.1151 46.2965C61.0657 46.1654 60.9984 46.0515 60.9131 45.9551C60.8279 45.8573 60.7278 45.7807 60.6129 45.7249C60.4992 45.6693 60.3777 45.6415 60.2479 45.6415H59.8106ZM61.9749 45.3205H63.9872V46.1165H63.6074V45.6415H62.6049V46.5414H63.448V46.8605H62.6049V47.8142H63.6074V47.3392H63.9872V48.1334H61.9749V47.8142H62.2417V45.6415H61.9749V45.3205ZM64.3577 45.3205H65.5271C65.6518 45.3205 65.7666 45.3372 65.8716 45.3705C65.9779 45.4027 66.0693 45.451 66.1459 45.5153C66.2237 45.5784 66.2843 45.6576 66.3275 45.7528C66.3708 45.8481 66.3923 45.9575 66.3923 46.0813C66.3923 46.1517 66.3794 46.2216 66.3535 46.2909C66.3287 46.3589 66.2935 46.4226 66.2478 46.482C66.2033 46.5402 66.1502 46.5921 66.0884 46.6378C66.0267 46.6837 65.9594 46.7189 65.8864 46.7436C65.9174 46.7573 65.9483 46.777 65.9791 46.803C66.0113 46.8277 66.0409 46.8587 66.0681 46.8957C66.0965 46.9317 66.1218 46.9731 66.1441 47.0201C66.1675 47.0658 66.1861 47.1154 66.1996 47.1686L66.3552 47.7809H66.598L66.6018 48.1334H66.055L65.8457 47.278C65.8074 47.1246 65.7488 47.012 65.6697 46.9403C65.5918 46.8674 65.4851 46.8309 65.3491 46.8309H64.9878V47.8142H65.2694V48.1334H64.3577V47.8142H64.6246V45.6415H64.3577V45.3205ZM64.9878 45.6415V46.5265H65.5271C65.5974 46.5265 65.6616 46.5172 65.7197 46.4987C65.779 46.4801 65.8296 46.4524 65.8716 46.4153C65.9149 46.3782 65.9483 46.3323 65.9717 46.278C65.9965 46.2222 66.0087 46.1579 66.0087 46.0849C66.0087 45.9452 65.9668 45.8363 65.8828 45.7584C65.7988 45.6805 65.6653 45.6415 65.4825 45.6415H64.9878ZM67.0594 45.3205H67.9563V45.6415H67.6894V47.8142H67.9563V48.1334H67.0594V47.8142H67.3262V45.6415H67.0594V45.3205ZM70.1483 47.8142H70.3817L70.1595 47.1759H69.0792L68.8624 47.8142H69.1514V48.1334H68.2398V47.8142H68.4843L69.359 45.3205H69.9056L70.7783 47.8142H71.06V48.1334H70.1483V47.8142ZM69.1848 46.868H70.0519L69.6146 45.6099L69.1848 46.868ZM72.0031 45.3205H72.9148V45.6415H72.648L73.176 46.5451L73.7412 45.6415H73.4485V45.3205H74.3601V45.6415H74.121L73.3317 46.8401V47.8142H73.6208V48.1334H72.7091V47.8142H72.9667V46.8309L72.2217 45.6415H72.0031V45.3205ZM76.9524 46.0849C76.9524 45.9761 76.9327 45.8944 76.8931 45.8401C76.8536 45.7856 76.8097 45.7442 76.7615 45.7157C76.7146 45.6861 76.6627 45.6638 76.6059 45.6489C76.549 45.6329 76.4922 45.6247 76.4354 45.6247C76.3416 45.6247 76.2593 45.6359 76.189 45.6582C76.1185 45.6792 76.0599 45.7082 76.0129 45.7453C75.9673 45.7824 75.9326 45.8258 75.9092 45.8753C75.8857 45.9247 75.8739 45.9768 75.8739 46.0311C75.8739 46.1128 75.8882 46.1789 75.9165 46.2297C75.9463 46.2791 75.9833 46.3194 76.0277 46.3503C76.0722 46.3799 76.1211 46.4035 76.1742 46.4207C76.2285 46.4381 76.2803 46.4554 76.3298 46.4728L76.7041 46.5951C76.8165 46.6311 76.9153 46.6719 77.0006 46.7176C77.087 46.7635 77.1593 46.8178 77.2174 46.8809C77.2755 46.9428 77.3192 47.0145 77.349 47.0962C77.3798 47.1778 77.3953 47.2724 77.3953 47.3801C77.3953 47.4964 77.3711 47.6039 77.323 47.703C77.276 47.8019 77.2099 47.8879 77.1247 47.9609C77.0394 48.0338 76.9376 48.0913 76.819 48.1334C76.7016 48.1742 76.5725 48.1946 76.4317 48.1946C76.2872 48.1946 76.1636 48.178 76.0611 48.1445C75.9585 48.1124 75.8721 48.069 75.8017 48.0146C75.7325 47.959 75.6769 47.8959 75.635 47.8253C75.593 47.7549 75.5602 47.6825 75.5367 47.6082H75.3959V47.2892H75.8629C75.8629 47.4265 75.8771 47.5236 75.9054 47.5805C75.9351 47.6374 75.9759 47.685 76.0277 47.7234C76.0796 47.7605 76.1414 47.7888 76.213 47.8087C76.2848 47.8272 76.3638 47.8365 76.4502 47.8365C76.5342 47.8365 76.6096 47.8266 76.6763 47.8068C76.7442 47.7871 76.8016 47.7586 76.8487 47.7215C76.8967 47.6831 76.9332 47.6374 76.958 47.5842C76.9839 47.5297 76.9968 47.4685 76.9968 47.4005C76.9968 47.325 76.9807 47.2613 76.9487 47.2094C76.9177 47.1562 76.8776 47.1111 76.8282 47.0739C76.7789 47.0368 76.7245 47.0066 76.6651 46.983C76.6071 46.9594 76.5509 46.939 76.4965 46.9218L76.0907 46.8067C76.0018 46.7796 75.9203 46.7449 75.8462 46.7028C75.7733 46.6608 75.7103 46.6095 75.6572 46.5488C75.6052 46.4882 75.5651 46.4177 75.5367 46.3373C75.5083 46.2557 75.4942 46.1617 75.4942 46.0553C75.4942 45.9476 75.5152 45.8468 75.5572 45.7528C75.5992 45.6588 75.6609 45.5765 75.7423 45.5061C75.8239 45.4355 75.9234 45.3805 76.0407 45.3409C76.1593 45.3001 76.2946 45.2797 76.4465 45.2797C76.5466 45.2797 76.6386 45.2914 76.7226 45.3149C76.8078 45.3385 76.8845 45.3718 76.9524 45.4151C77.0216 45.4572 77.0821 45.5085 77.1339 45.5691C77.1871 45.6285 77.2316 45.694 77.2674 45.7659H77.4064V46.0849H76.9524ZM79.4168 47.8142H79.6503L79.4279 47.1759H78.3477L78.1308 47.8142H78.4199V48.1334H77.5082V47.8142H77.7529L78.6275 45.3205H79.1741L80.0469 47.8142H80.3284V48.1334H79.4168V47.8142ZM78.4533 46.868H79.3205L78.8832 45.6099L78.4533 46.868ZM80.6121 45.3205H81.5237V45.6415H81.242V47.8142H82.2111C82.2308 47.8142 82.2507 47.8099 82.2704 47.8013C82.2901 47.7914 82.3081 47.779 82.3242 47.7642C82.3402 47.7493 82.3531 47.7326 82.363 47.714C82.3729 47.6942 82.3778 47.6745 82.3778 47.6547V47.3003H82.73V48.1334H80.6121V47.8142H80.8788V45.6415H80.6121V45.3205ZM83.3025 47.8142H83.56V45.6247H82.919V46.0626H82.5391V45.3205H85.0443V46.0626H84.6645V45.6247H83.9232V47.8142H84.2122V48.1334H83.3025V47.8142ZM85.3852 45.3205H87.3975V46.1165H87.0177V45.6415H86.0152V46.5414H86.8583V46.8605H86.0152V47.8142H87.0177V47.3392H87.3975V48.1334H85.3852V47.8142H85.652V45.6415H85.3852V45.3205ZM89.5062 45.3205H90.4179V45.6415H90.1788V48.1334H89.7044L88.3981 45.8011V47.8142H88.6872V48.1334H87.7755V47.8142H88.0349V45.6415H87.7682V45.3168H88.5241L89.8064 47.6268L89.8212 47.5378V45.6415H89.5062V45.3205ZM88.8429 44.6172C88.9046 44.6172 88.9577 44.6278 89.0023 44.6488C89.0479 44.6685 89.0899 44.6908 89.1283 44.7157C89.1677 44.7391 89.2067 44.7608 89.245 44.7805C89.2832 44.8004 89.3265 44.8103 89.3747 44.8103C89.4092 44.8103 89.4426 44.7985 89.4747 44.7749C89.5081 44.7515 89.5303 44.7138 89.5414 44.6618L89.7619 44.7267C89.7372 44.8319 89.689 44.9135 89.6174 44.9717C89.5458 45.0285 89.4599 45.057 89.3599 45.057C89.2907 45.057 89.232 45.0478 89.1838 45.0292C89.1356 45.0094 89.0918 44.9884 89.0522 44.9661C89.0128 44.9438 88.9757 44.9234 88.941 44.9049C88.9065 44.885 88.8688 44.8751 88.8281 44.8751C88.8095 44.8751 88.7904 44.8764 88.7707 44.8789C88.7521 44.8813 88.7336 44.8875 88.715 44.8974C88.6965 44.906 88.6792 44.9204 88.6631 44.9401C88.6483 44.9587 88.6366 44.9852 88.628 45.0199L88.4259 44.9216C88.442 44.8635 88.4649 44.8152 88.4945 44.7768C88.5241 44.7372 88.5575 44.7057 88.5946 44.6822C88.6316 44.6587 88.6711 44.6421 88.7131 44.6321C88.7564 44.6222 88.7996 44.6172 88.8429 44.6172ZM90.7774 45.3205H92.7897V46.1165H92.4098V45.6415H91.4073V46.5414H92.2504V46.8605H91.4073V47.8142H92.4098V47.3392H92.7897V48.1334H90.7774V47.8142H91.0442V45.6415H90.7774V45.3205ZM93.1603 45.3205H94.3295C94.4542 45.3205 94.5691 45.3372 94.6742 45.3705C94.7803 45.4027 94.8718 45.451 94.9483 45.5153C95.0262 45.5784 95.0867 45.6576 95.13 45.7528C95.1732 45.8481 95.1949 45.9575 95.1949 46.0813C95.1949 46.1517 95.1818 46.2216 95.1559 46.2909C95.1312 46.3589 95.0959 46.4226 95.0503 46.482C95.0059 46.5402 94.9527 46.5921 94.8909 46.6378C94.8292 46.6837 94.7619 46.7189 94.689 46.7436C94.7199 46.7573 94.7507 46.777 94.7816 46.803C94.8137 46.8277 94.8433 46.8587 94.8705 46.8957C94.899 46.9317 94.9243 46.9731 94.9465 47.0201C94.9699 47.0658 94.9885 47.1154 95.0021 47.1686L95.1578 47.7809H95.4005L95.4042 48.1334H94.8576L94.6481 47.278C94.6099 47.1246 94.5512 47.012 94.4722 46.9403C94.3944 46.8674 94.2875 46.8309 94.1517 46.8309H93.7902V47.8142H94.072V48.1334H93.1603V47.8142H93.4271V45.6415H93.1603V45.3205ZM93.7902 45.6415V46.5265H94.3295C94.4 46.5265 94.4641 46.5172 94.5222 46.4987C94.5815 46.4801 94.6321 46.4524 94.6742 46.4153C94.7173 46.3782 94.7507 46.3323 94.7743 46.278C94.7989 46.2222 94.8112 46.1579 94.8112 46.0849C94.8112 45.9452 94.7692 45.8363 94.6852 45.7584C94.6012 45.6805 94.4679 45.6415 94.285 45.6415H93.7902ZM95.8619 45.3205H96.7587V45.6415H96.4919V47.8142H96.7587V48.1334H95.8619V47.8142H96.1288V45.6415H95.8619V45.3205ZM98.9508 47.8142H99.1843L98.9619 47.1759H97.8816L97.6648 47.8142H97.9539V48.1334H97.0422V47.8142H97.2869L98.1614 45.3205H98.708L99.5809 47.8142H99.8624V48.1334H98.9508V47.8142ZM97.9873 46.868H98.8544L98.4171 45.6099L97.9873 46.868Z" fill="black"/>
<path d="M126.496 44.3333C136.975 44.3333 145.47 35.8267 145.47 25.3333C145.47 14.8399 136.975 6.33334 126.496 6.33334C116.016 6.33334 107.521 14.8399 107.521 25.3333C107.521 35.8267 116.016 44.3333 126.496 44.3333Z" fill="#603015"/>
<path d="M114.918 26.5123C115.054 26.8696 114.834 27.069 114.615 27.3042C113.677 28.2985 113.585 30.046 114.406 31.0077C114.948 31.6418 115.588 31.7847 116.358 31.5792C118.008 31.1387 119.689 30.835 121.382 31.1089C123.605 31.4691 125.83 31.5882 128.072 31.5494C129.673 31.5227 131.258 31.2904 132.845 31.082C134.422 30.8737 135.977 31.1565 137.506 31.5346C139.167 31.9454 140.441 30.6236 140.07 28.7809C139.942 28.1467 139.685 27.59 139.219 27.1821C139.04 27.0244 138.999 26.8547 139.007 26.6135C139.05 25.3602 138.536 24.4581 137.522 23.8985C137.373 23.8152 137.286 23.7259 137.248 23.5323C137.008 22.2671 136.292 21.5079 135.148 21.2341C134.966 21.1894 134.866 21.103 134.774 20.9125C134.256 19.8348 133.433 19.296 132.321 19.3138C132.079 19.3169 131.903 19.2752 131.716 19.0607C130.952 18.1766 130.012 17.9266 128.955 18.2868C128.739 18.3612 128.603 18.3254 128.41 18.2035C127.448 17.5782 126.464 17.5663 125.513 18.2302C125.323 18.3612 125.196 18.3463 125.009 18.2838C123.93 17.9266 122.984 18.1916 122.206 19.0876C122.068 19.2483 121.949 19.3288 121.735 19.3198C120.569 19.2692 119.694 19.814 119.163 20.9572C119.065 21.1686 118.935 21.2043 118.772 21.243C117.664 21.5139 116.973 22.2641 116.718 23.4698C116.664 23.7288 116.555 23.8271 116.366 23.9342C115.431 24.47 114.973 25.3424 114.918 26.5123Z" fill="#FAFAFA"/>
<path d="M117.417 24.5232C116.108 24.7673 115.694 25.6336 115.948 27.0477C116.011 27.3901 115.867 27.5746 115.601 27.7353C114.889 28.1701 114.577 29.0632 114.832 29.8759C115.035 30.5308 115.485 30.7631 116.106 30.5993C118.317 30.0247 120.537 29.9205 122.803 30.2838C125.562 30.7273 128.35 30.7243 131.109 30.2926C133.438 29.9295 135.715 30.0009 137.983 30.6529C138.531 30.8107 139.062 30.3641 139.176 29.6735C139.308 28.8726 139.002 28.1194 138.348 27.7265C138.04 27.5419 137.937 27.3424 138.037 26.9494C138.3 25.9224 137.81 24.9995 136.858 24.7107C136.498 24.6006 136.365 24.404 136.367 23.9873C136.379 23.0168 135.63 22.1803 134.745 22.1891C134.294 22.1951 134.126 22.0195 134.021 21.5521C133.827 20.6709 132.876 20.1112 132.026 20.3671C131.638 20.4833 131.434 20.3911 131.237 20.0099C130.798 19.1585 129.785 18.8489 129.012 19.343C128.649 19.5754 128.416 19.5425 128.12 19.224C127.458 18.5096 126.429 18.5393 125.787 19.2776C125.551 19.5485 125.342 19.5783 125.049 19.4087C124.098 18.8489 123.242 19.108 122.667 20.1261C122.513 20.4 122.328 20.4804 122.044 20.4089C120.946 20.1231 120.206 20.5935 119.878 21.7813C119.797 22.0731 119.634 22.1862 119.369 22.1951C118.228 22.2427 117.672 22.847 117.585 24.1213C117.574 24.273 117.561 24.3623 117.539 24.5142" fill="#603015"/>
<path d="M117.504 24.6097C117.409 24.8419 117.452 25.0504 117.618 25.2111C117.954 25.5385 118.293 25.863 118.645 26.1697C118.854 26.3512 119.092 26.3334 119.268 26.1102C119.444 25.8869 119.434 25.6309 119.225 25.4285C118.889 25.1009 118.547 24.7794 118.195 24.4728C117.957 24.2673 117.732 24.3685 117.528 24.568L117.504 24.6097Z" fill="#FAFAFA"/>
<path d="M126.497 20.9717C126.497 21.2099 126.483 21.448 126.5 21.6861C126.519 21.9749 126.665 22.1625 126.941 22.1744C127.226 22.1863 127.385 21.9839 127.401 21.71C127.432 21.2039 127.429 20.6918 127.401 20.1827C127.389 19.9238 127.214 19.7451 126.969 19.7422C126.703 19.7391 126.532 19.9179 126.505 20.2096C126.483 20.4627 126.5 20.7187 126.5 20.9717C126.5 20.9717 126.5 20.9717 126.497 20.9717Z" fill="#FAFAFA"/>
<path d="M125.581 21.7575C125.507 21.2901 125.445 20.8198 125.353 20.3553C125.299 20.0786 125.12 19.891 124.852 19.9357C124.57 19.9833 124.418 20.2065 124.461 20.525C124.524 20.9955 124.605 21.4598 124.689 21.9243C124.743 22.2101 124.925 22.3827 125.188 22.347C125.475 22.3053 125.608 22.0851 125.581 21.7575Z" fill="#FAFAFA"/>
<path d="M122.149 23.1005C121.922 22.6063 121.686 22.0556 121.325 21.5911C121.195 21.4215 120.992 21.4304 120.816 21.5613C120.624 21.7042 120.548 21.9246 120.645 22.1359C120.867 22.6182 121.114 23.0856 121.377 23.5411C121.496 23.7465 121.713 23.7762 121.916 23.6662C122.1 23.5619 122.171 23.3803 122.149 23.1005Z" fill="#FAFAFA"/>
<path d="M115.975 28.2596C115.642 28.2715 115.496 28.4144 115.433 28.6436C115.363 28.8966 115.488 29.102 115.674 29.1913C116.111 29.3997 116.564 29.5725 117.016 29.7332C117.238 29.8135 117.414 29.6618 117.509 29.4563C117.61 29.239 117.585 28.9741 117.382 28.8728C116.897 28.6258 116.385 28.4351 115.975 28.2596Z" fill="#FAFAFA"/>
<path d="M118.331 27.4172C118.312 27.2178 118.222 27.0749 118.062 26.9736C117.715 26.7563 117.374 26.5301 117.024 26.3157C116.783 26.1668 116.526 26.158 116.371 26.4347C116.211 26.7176 116.29 26.9945 116.558 27.1702C116.916 27.4023 117.271 27.6405 117.642 27.8459C117.984 28.0364 118.339 27.8042 118.331 27.4172Z" fill="#FAFAFA"/>
<path d="M136.429 24.8957C136.446 24.5027 136.088 24.2198 135.801 24.4343C135.383 24.7468 135.006 25.1249 134.631 25.497C134.479 25.6489 134.492 25.8573 134.605 26.0537C134.722 26.2532 134.912 26.3544 135.08 26.2561C135.582 25.9585 136.002 25.5358 136.384 25.0713C136.422 25.0267 136.419 24.9434 136.429 24.8957Z" fill="#FAFAFA"/>
<path d="M134.985 23.2909C134.987 23.0856 134.909 22.9278 134.745 22.8354C134.565 22.7342 134.373 22.7313 134.232 22.9039C133.915 23.2969 133.609 23.6988 133.313 24.1097C133.186 24.2852 133.208 24.4967 133.332 24.6753C133.445 24.839 133.606 24.8837 133.787 24.845C134.017 24.7914 134.975 23.547 134.985 23.2909Z" fill="#FAFAFA"/>
<path d="M131.443 21.1327C131.44 20.7903 131.332 20.6146 131.115 20.5462C130.895 20.4777 130.692 20.5581 130.608 20.7844C130.421 21.2815 130.25 21.7906 130.103 22.3056C130.036 22.5468 130.172 22.7313 130.375 22.8326C130.592 22.9397 130.803 22.8683 130.893 22.6509C131.106 22.1299 131.28 21.5882 131.443 21.1327Z" fill="#FAFAFA"/>
<path d="M128.329 21.7546C128.329 22.1029 128.454 22.2994 128.692 22.347C128.931 22.3947 129.137 22.2666 129.194 22.0047C129.304 21.4927 129.399 20.9776 129.459 20.4567C129.486 20.2036 129.332 20.0012 129.093 19.9416C128.838 19.8821 128.646 20.0398 128.589 20.281C128.466 20.79 128.402 21.3139 128.329 21.7546Z" fill="#FAFAFA"/>
<path d="M136.094 27.9231C136.571 27.6641 137.134 27.4171 137.558 26.9318C137.674 26.7978 137.641 26.5745 137.522 26.4108C137.39 26.2292 137.205 26.1607 137.026 26.2649C136.59 26.518 136.156 26.7859 135.741 27.0776C135.576 27.1938 135.538 27.4051 135.625 27.6224C135.701 27.81 135.829 27.9082 136.094 27.9231Z" fill="#FAFAFA"/>
<path d="M132.845 21.4722C132.655 21.4812 132.53 21.6002 132.44 21.7669C132.229 22.1598 132.02 22.5558 131.814 22.9518C131.666 23.2406 131.741 23.4906 131.984 23.6484C132.218 23.8002 132.437 23.7199 132.579 23.4668C132.809 23.047 133.042 22.6272 133.239 22.1896C133.397 21.8443 133.172 21.4662 132.845 21.4722Z" fill="#FAFAFA"/>
<path d="M137.94 28.2596C137.508 28.4382 137.027 28.6168 136.565 28.8401C136.332 28.9532 136.308 29.2211 136.403 29.4563C136.489 29.6737 136.674 29.8076 136.894 29.7302C137.345 29.5694 137.796 29.3908 138.235 29.1913C138.462 29.0872 138.522 28.852 138.455 28.593C138.389 28.337 138.205 28.2744 137.94 28.2596Z" fill="#FAFAFA"/>
<path d="M122.483 21.1711C122.634 21.5939 122.808 22.1327 123.022 22.6537C123.101 22.8471 123.296 22.9276 123.499 22.8502C123.713 22.7697 123.843 22.5971 123.8 22.347C123.705 21.7813 123.505 21.2455 123.279 20.7305C123.182 20.5072 122.957 20.4745 122.751 20.5638C122.561 20.6441 122.466 20.8139 122.483 21.1711Z" fill="#FAFAFA"/>
<path d="M120.662 24.2972C120.634 24.2348 120.607 24.1127 120.542 24.0264C120.268 23.6572 119.989 23.291 119.702 22.9368C119.531 22.7254 119.314 22.7164 119.117 22.8713C118.894 23.0469 118.851 23.3059 119.016 23.544C119.295 23.9519 119.599 24.3389 119.905 24.7229C120.044 24.8986 120.247 24.8986 120.423 24.8122C120.588 24.7319 120.667 24.5593 120.662 24.2972Z" fill="#FAFAFA"/>
</svg>
