<?xml version="1.0" encoding="UTF-8"?>
<svg xmlns="http://www.w3.org/2000/svg" xmlns:xlink="http://www.w3.org/1999/xlink" version="1.1" id="plus-add-more-detail" x="0px" y="0px" viewBox="0 0 15 15" style="enable-background:new 0 0 15 15;" xml:space="preserve">
<path d="M7.5,0C3.364,0,0,3.364,0,7.5S3.364,15,7.5,15S15,11.636,15,7.5S11.636,0,7.5,0z M7.5,14C3.916,14,1,11.084,1,7.5  S3.916,1,7.5,1S14,3.916,14,7.5S11.084,14,7.5,14z"/>
<polygon points="8,3.5 7,3.5 7,7 3.5,7 3.5,8 7,8 7,11.5 8,11.5 8,8 11.5,8 11.5,7 8,7 "/>

	<metadata>
		<rdf:RDF xmlns:rdf="http://www.w3.org/1999/02/22-rdf-syntax-ns#" xmlns:rdfs="http://www.w3.org/2000/01/rdf-schema#" xmlns:dc="http://purl.org/dc/elements/1.1/">
			<rdf:Description about="https://iconscout.com/legal#licenses" dc:title="plus-add-more-detail" dc:description="plus-add-more-detail" dc:publisher="Iconscout" dc:date="2017-04-02" dc:format="image/svg+xml" dc:language="en">
				<dc:creator>
					<rdf:Bag>
						<rdf:li>Becris .</rdf:li>
					</rdf:Bag>
				</dc:creator>
			</rdf:Description>
		</rdf:RDF>
    </metadata></svg>
