<svg width="30" height="30" viewBox="0 0 30 30" xmlns="http://www.w3.org/2000/svg">
<path d="M27.5 7.25026C26.5604 7.65788 25.5668 7.92734 24.55 8.05026C25.6227 7.40941 26.4266 6.40124 26.8125 5.21276C25.8044 5.81284 24.701 6.23563 23.55 6.46276C22.7807 5.62848 21.7562 5.07313 20.6373 4.88383C19.5183 4.69452 18.3682 4.88196 17.3672 5.41675C16.3663 5.95154 15.5712 6.80343 15.1066 7.83881C14.6419 8.87419 14.5341 10.0345 14.8 11.1378C12.7618 11.0347 10.7681 10.504 8.94832 9.58009C7.12859 8.65622 5.52356 7.35988 4.2375 5.77526C3.78642 6.56297 3.5494 7.45504 3.55 8.36276C3.5484 9.20574 3.75527 10.036 4.15219 10.7797C4.54912 11.5234 5.12377 12.1574 5.825 12.6253C5.00997 12.6031 4.21236 12.3844 3.5 11.9878V12.0503C3.50611 13.2314 3.91999 14.3741 4.67164 15.2852C5.42329 16.1963 6.46657 16.8198 7.625 17.0503C7.17907 17.186 6.71609 17.2575 6.25 17.2628C5.92736 17.259 5.60553 17.2297 5.2875 17.1753C5.61739 18.1913 6.25578 19.0792 7.11384 19.7155C7.97191 20.3517 9.00697 20.7047 10.075 20.7253C8.2715 22.1443 6.04485 22.9188 3.75 22.9253C3.33217 22.9266 2.91467 22.9016 2.5 22.8503C4.84304 24.3631 7.57352 25.1662 10.3625 25.1628C12.2871 25.1827 14.1964 24.819 15.9789 24.0929C17.7614 23.3667 19.3813 22.2926 20.744 20.9334C22.1067 19.5741 23.185 17.957 23.9157 16.1764C24.6464 14.3958 25.015 12.4874 25 10.5628C25 10.3503 25 10.1253 25 9.90026C25.9809 9.16878 26.8268 8.27204 27.5 7.25026Z"/>
</svg>
